# xmcd
#
# Track frame offsets: 
#        150
#        11767
#        27540
#        41820
#        58380
#        73002
#        84835
#        96862
#        112967
#        127320
#        139187
#        152495
#        167410
#        181942
#        199190
#        211835
#        227580
#        240627
#        251740
#        265917
#
# Disc length: 3723 seconds
#
# Revision: 7
# Processed by: cddbd v1.5.2PL0 Copyright (c) Steve Scherf et al.
# Submitted via: ExactAudioCopy v0.95b4
#
DISCID=1b0e8914
DTITLE=Various Artist - The Originals: Country Stars (From The 70's)
DYEAR=1988
DGENRE=Country
TTITLE0=Crystal Gayle - Don't It Make My Brown Eyes Blue
TTITLE1=Alabama - Feels So Right
TTITLE2=Glen Campbell - Rhinestone Cowboy
TTITLE3=Anne Murray - You Needed Me
TTITLE4=Ronnie Milsap - (There's) No Gettin' Over Me
TTITLE5=Willie Nelson - Funny How Time Slips Away
TTITLE6=Kenny Rogers and Dottie West - Baby I'm A Want You
TTITLE7=Billie Jo Spears - Blanket On The Ground
TTITLE8=Everly Brothers - The Brand New Tennessee Waltz
TTITLE9=Wanda Jackson - Stand By Your Man
TTITLE10=Waylon Jennings - Amanda
TTITLE11=Perry Como - And I Love You So
TTITLE12=Chet Atkins - Vincent
TTITLE13=Kenny Rogers - Lady
TTITLE14=Anne Murray - A Love Song
TTITLE15=Dirt Band - An American Dream
TTITLE16=Dolly Parton - I Will Always Love You
TTITLE17=Charley Pride - Help Me Make It Through The Night
TTITLE18=Dottie West - Desperado
TTITLE19=Ronnie Milsap - (I'd Be) A Legend In My Time
EXTD=
EXTT0=
EXTT1=
EXTT2=
EXTT3=
EXTT4=
EXTT5=
EXTT6=
EXTT7=
EXTT8=
EXTT9=
EXTT10=
EXTT11=
EXTT12=
EXTT13=
EXTT14=
EXTT15=
EXTT16=
EXTT17=
EXTT18=
EXTT19=
PLAYORDER=
